<svg id="Layer_1" data-name="Layer 1" xmlns="http://www.w3.org/2000/svg" viewBox="0 0 281 61.69"><defs><style>.cls-1{fill:#298bbc;}.cls-1,.cls-2{fill-rule:evenodd;}.cls-2{fill:#42626e;}</style></defs><title>gratisal-logo-horizontal</title><path class="cls-1" d="M119.45,55.73V22.4H126l1,4.25q4.39-4.24,9.28-4.25V29.2a11.32,11.32,0,0,0-8.41,3.9V55.73h-8.42Z" transform="translate(-1.46 -0.43)"/><path class="cls-1" d="M138.11,45.35q0-9.93,14.47-9.93a37.06,37.06,0,0,1,6.79.64V33.54c0-3-2.16-4.47-6.44-4.47a52.38,52.38,0,0,0-12.13,1.59V24a53.44,53.44,0,0,1,12.13-1.58q14.84,0,14.85,11V55.73H162.9l-3-3a16.61,16.61,0,0,1-9.58,3q-12.22,0-12.22-10.38h0Zm21.27-3.59a35,35,0,0,0-6.79-.64q-6.06,0-6.07,4.12c0,3,1.69,4.44,5.08,4.44a13,13,0,0,0,7.78-2.6V41.76h0Z" transform="translate(-1.46 -0.43)"/><path class="cls-1" d="M172.9,17h6.22l1.28,5.39h8.38v6.67h-7.45V44.4q0,4.66,4,4.67h3.43v6.67h-7.48q-8.39,0-8.39-9V17h0Z" transform="translate(-1.46 -0.43)"/><path class="cls-1" d="M202.9,10.35V17h-8.42V10.35h8.42Zm0,12.06V55.73h-8.42V22.4h8.42Z" transform="translate(-1.46 -0.43)"/><path class="cls-2" d="M209.16,54.15v-7A34.28,34.28,0,0,0,222,49.38c3.61,0,5.42-1.15,5.42-3.49s-1.23-3.34-3.65-3.34h-6q-10.15,0-10.14-10,0-10.47,14.81-10.47A36.39,36.39,0,0,1,234.23,24v7a32,32,0,0,0-12.06-2.22c-4.55,0-6.81,1.16-6.81,3.49s1.32,3.34,4,3.34h5.39q11.1,0,11.1,10Q235.82,56,221.68,56a38.52,38.52,0,0,1-12.51-1.9h0Z" transform="translate(-1.46 -0.43)"/><path class="cls-2" d="M239.11,45.35q0-9.93,14.48-9.93a37.07,37.07,0,0,1,6.79.64V33.54c0-3-2.16-4.47-6.45-4.47a52.31,52.31,0,0,0-12.12,1.59V24a53.36,53.36,0,0,1,12.12-1.58q14.86,0,14.85,11V55.73h-4.89l-3-3a16.58,16.58,0,0,1-9.57,3q-12.23,0-12.23-10.38h0Zm21.27-3.59a34.93,34.93,0,0,0-6.79-.64q-6.07,0-6.07,4.12c0,3,1.69,4.44,5.08,4.44a13,13,0,0,0,7.78-2.6V41.76h0Z" transform="translate(-1.46 -0.43)"/><polygon class="cls-2" points="281 9.91 281 55.3 272.58 55.3 272.58 9.91 281 9.91 281 9.91"/><path class="cls-1" d="M113.64,53.64A34.24,34.24,0,0,1,99.91,56q-24,0-24-23.64Q75.88,10,100.32,10a37.47,37.47,0,0,1,13.32,2.22v7.61a31.54,31.54,0,0,0-12.69-2.54q-16.33,0-16.34,15.08,0,16.35,15.42,16.34a20.77,20.77,0,0,0,5.2-.76V41.72H97.3V34.78h16.34V53.64h0Z" transform="translate(-1.46 -0.43)"/><path class="cls-1" d="M16.55,0.43H48.06A15.14,15.14,0,0,1,62.42,10.92c0.56,1.75.17,3.39-1.93,3.79l-7.41,1.53c-3.1.64-3.88,0.62-5.85-1.95C43.64,9.63,36,10.74,31.35,12.22c-5,1.6-12.37,5.09-16.81,12.43-2.38,3.83-2.44,7.05-1.15,9.59,1.73,3.43,5.26,5.08,8.89,5.75a25.32,25.32,0,0,0,6.08.23c2.35-.12,5.1-0.22,6.9.34s2.24,1.66,1.55,3.35a12.88,12.88,0,0,1-4.14,4.7,55.9,55.9,0,0,1-17.77,8.62C6.34,59.15,1.46,56.72,1.46,47V15.53A15.13,15.13,0,0,1,16.55.43h0Z" transform="translate(-1.46 -0.43)"/><path class="cls-2" d="M63.14,24.2V47A15.13,15.13,0,0,1,48.06,62.12l-20.54,0c-6,0-3.33-1.76-.42-2.92C36,55.62,44.47,52.34,50.37,44.27c2.46-3.36,3.45-6.8,1.85-9.7C49.15,30,39.8,30.81,35,32.12a54.32,54.32,0,0,1-5.86,1.57c-1.72.27-4.25,0-2.85-3.49,1.21-3,4.71-4.36,7.58-5.11,7.66-2,15-4.06,22.87-5.31,4-.64,6.42,0,6.42,4.42h0Z" transform="translate(-1.46 -0.43)"/></svg>